<svg id="Capa_1" enable-background="new 0 0 497 497" height="512" viewBox="0 0 497 497" width="512" xmlns="http://www.w3.org/2000/svg"><g><path d="m121.084 282.933c0 45.57-58.878 91.912-58.878 91.912l22.037 37.674h150l-42.055-248.563c-51.264 35.378-71.104 90.285-71.104 118.977z" fill="#664646"/><path d="m83.307 368.912-21.101 5.933c-3.233 21.345 2.037 37.674 2.037 37.674h20s-6.274-19.43-.936-43.607z" fill="#444145"/><path d="m91.124 332.282c-9.975 12.217-5.244 24.974-7.817 36.629 35.446-13.93 57.777-40.409 57.777-85.979 0-28.692-.159-83.599 51.104-118.977l-22.999-135.931s-3.696-5.287-22.518-5.287c-10.342 0-19.99 2.54-28.539 7.657-10.648 16.709-27.009 41.084-27.009 73.436.001 34.592.001 228.452.001 228.452z" fill="#785252"/><path d="m83.307 368.912c2.573-11.655 7.842-24.412 17.817-36.629 0 0 0-193.861 0-228.453 0-32.351 6.361-56.727 17.009-73.436-22.237 13.31-37.009 44.115-37.009 93.436v208.453c-11.699 14.328-16.924 29.398-18.918 42.562 4.127-.617 8.501-1.572 12.918-3.001 2.801-.906 5.525-1.888 8.183-2.932z" fill="#664646"/><path d="m346.938 382.757c-25.929-7.482-41.362-19.606-41.362-19.606s-139.792 14.574-140.197 14.176c-4.506 1.915-9.617 3.785-15.317 5.429-4.035 1.164-8.264 2.379-12.591 3.631 3.952 1.809 50.279 22.399 111.029 22.399 60.999 0 107.452-20.727 111.073-22.386-4.343-1.256-8.586-2.475-12.635-3.643z" fill="#ebae9d"/><path d="m228.324 406.854c17.302 0 37.756-4.351 61.735-27.831 5.44-5.327 10.626-10.575 15.518-15.872v-30.418l-115.836-1.225v31.643s-8.37 7.379-24.361 14.176c.404.398.803.795 1.21 1.193 23.978 23.48 44.502 28.334 61.734 28.334z" fill="#c38778"/><path d="m432.757 412.519c-5.855-4.104-17.753-8.788-31.882-13.512-.057.039-58.551 39.779-152.375 39.779s-152.318-39.74-152.375-39.779c-55.715 36.493-61.125 49.764-61.125 97.993h427c11.413 0 19.342-11.231 15.666-22.035-7.3-21.463-23.388-47.361-44.909-62.446z" fill="#e592b8"/><path d="m96.125 399.007c-14.129 4.725-26.027 9.408-31.882 13.512-21.521 15.085-37.608 40.983-44.909 62.445-3.676 10.805 4.253 22.036 15.666 22.036 0-25.335 24.077-73.727 61.125-97.993z" fill="#de5ca3"/><path d="m400.875 399.007c-12.87-4.304-27.587-8.641-41.302-12.607-3.621 1.659-50.074 22.386-111.073 22.386-60.751 0-107.077-20.59-111.029-22.399-13.728 3.97-28.462 8.311-41.346 12.619.057.039 58.551 39.779 152.375 39.779 93.824.001 152.318-39.74 152.375-39.778z" fill="#ffd064"/><path d="m370.876 163.99c0-15.406 0-30.193 0-36.328 0-67.054-45.156-127.662-122.376-127.662-31.619 0-57.857 10.166-77.825 26.771-.234.418-32.891 34.43-32.891 85.641 0 22.613-11.66 51.578-11.66 51.578s244.75-.013 244.752 0z" fill="#785252"/><path d="m146.124 109.358c0-51.632 24.317-82.169 24.551-82.587-28.799 23.948-44.551 61.293-44.551 100.891v36.328s20-24.975 20-54.632z" fill="#664646"/><path d="m340.25 92.861c-21.819-28.238-161.68-28.238-183.499 0-3.964 5.13-7.496 10.745-10.627 16.497 0 13.057-10 83.609-10 97.593 0 64.865 27.184 96.503 58.396 131.569 20.899 23.48 40.185 28.334 53.805 28.334 17.302 0 37.756-4.854 61.735-28.334 35.811-35.066 60.818-66.704 60.818-131.569 0-4.333 10-21.713 10-21.713s-10-14.025-10-21.248c-.004-.013-8.812-42.895-30.628-71.129z" fill="#ebae9d"/><path d="m199.529 338.521c-28.305-35.066-53.406-66.704-53.406-131.569 0-13.984 0-84.536 0-97.593-14.1 25.91-20 54.632-20 54.632 0 7.103-10 20.916-10 20.916s10 17.662 10 22.046c0 64.865 24.654 96.503 60.466 131.569 23.979 23.48 44.503 28.334 61.734 28.334-13.619-.002-29.841-4.856-48.794-28.335z" fill="#c38778"/><path d="m269.342 247.855-10.15-27.982c-3.02-8.325-18.365-8.325-21.384 0l-10.15 27.982c-2.286 6.302-.529 9.593 9.386 14.232 8.32 3.893 14.592 3.893 22.912 0 9.915-4.639 11.672-7.93 9.386-14.232z" fill="#c38778"/><path d="m39.392 374.649c-4.113-.487-6.39-5.167-5.329-9.171 1.061-4.003 5.035-5.577 9.171-5.329 11.213.671 19.183-.394 35.457-5.51 12.779-4.017 21.203-11.111 21.203-11.111s-12.646 24.109-16.587 25.384c-10.257 3.317-22.151 8.313-43.915 5.737z" fill="#785252"/><path d="m248.5 316.075c-.001 0 .001 0 0 0-24.276 0-45.662-9.257-57.209-24.762-2.474-3.322-1.787-8.021 1.536-10.495 3.321-2.475 8.021-1.787 10.495 1.536 8.6 11.548 25.912 18.721 45.179 18.721s36.58-7.173 45.18-18.722c2.473-3.322 7.173-4.01 10.494-1.535 3.322 2.474 4.01 7.173 1.535 10.495-11.548 15.505-32.937 24.762-57.21 24.762z" fill="#b46e5a"/><path d="m270.169 167.273c-2.337 0-4.64-1.089-6.104-3.134-2.412-3.368-1.637-8.053 1.731-10.464 10.941-7.834 24.998-12.148 39.582-12.148 17.483 0 30.436 7.001 35.193 10.011 3.5 2.215 4.542 6.848 2.327 10.348s-6.846 4.542-10.349 2.328c-7.606-4.813-17.765-7.687-27.172-7.687-11.312 0-22.556 3.406-30.85 9.345-1.32.945-2.846 1.401-4.358 1.401z" fill="#785252"/><path d="m226.831 167.273c-1.512 0-3.037-.456-4.36-1.402-8.294-5.939-19.538-9.345-30.85-9.345-9.407 0-19.565 2.874-27.172 7.687-3.502 2.216-8.133 1.172-10.348-2.328s-1.172-8.133 2.328-10.348c4.758-3.01 17.71-10.011 35.193-10.011 14.583 0 28.641 4.314 39.582 12.148 3.368 2.412 4.143 7.097 1.732 10.464-1.465 2.046-3.769 3.135-6.105 3.135z" fill="#785252"/><path d="m200.191 219.118c-4.142 0-7.5-3.358-7.5-7.5v-16.757c0-4.142 3.358-7.5 7.5-7.5s7.5 3.358 7.5 7.5v16.757c0 4.142-3.358 7.5-7.5 7.5z" fill="#b46e5a"/><path d="m296.809 219.118c-4.143 0-7.5-3.358-7.5-7.5v-16.757c0-4.142 3.357-7.5 7.5-7.5s7.5 3.358 7.5 7.5v16.757c0 4.142-3.358 7.5-7.5 7.5z" fill="#b46e5a"/><path d="m304.474 327.93c-4.143 0-7.5-3.358-7.5-7.5s3.357-7.5 7.5-7.5c70.104 0 80.417-24.549 89.068-64.981.867-4.051 18.321-18.234 18.321-18.234s-2.785 17.323-3.653 21.373c-5.162 24.124-11.686 42.914-26.743 56.207-15.946 14.078-40.411 20.635-76.993 20.635z" fill="#766d78"/><path d="m106.124 147.307-10 77.259c0 5.523 14.477 20 20 20s10-14.477 10-20v-60.999c0-10.87-10.07-18.378-20-16.26z" fill="#a29aa5"/><path d="m116.124 234.566c-5.523 0-10-4.477-10-10v-77.259c-1.38.294-2.758.771-4.106 1.454-11.042 5.598-20.894 22.365-20.894 51.986s9.852 46.388 20.894 51.986 24.106-2.426 24.106-14.806v-13.362c0 5.523-4.477 10.001-10 10.001z" fill="#766d78"/><path d="m394.982 148.761c-1.348-.683-2.725-1.16-4.106-1.454l-10 77.463c0 5.401 14.378 19.779 19.779 19.779 3.127 0 7.814-11.891 11.207-14.834 2.5-7.757 4.014-17.373 4.014-28.967 0-29.622-9.852-46.389-20.894-51.987z" fill="#a29aa5"/><path d="m390.876 224.77v-77.463c-9.931-2.117-20 5.391-20 16.26v74.361c0 12.38 13.063 20.404 24.106 14.806 6.72-3.407 12.995-10.959 16.881-23.019-3.393 2.943-8.08 4.834-11.207 4.834-5.401 0-9.78-4.379-9.78-9.779z" fill="#766d78"/></g></svg>