<svg id="Capa_1" enable-background="new 0 0 497 497" height="512" viewBox="0 0 497 497" width="512" xmlns="http://www.w3.org/2000/svg"><g><path d="m447.757 442.519c-12.877-9.026-54.944-20.853-85.819-29.763-25.929-7.482-44.454-19.606-44.454-19.606h-137.968s-18.525 12.124-44.454 19.606c-20.456 5.903-45.817 13.086-64.354 19.887-31 26.188-35.708 52.551-35.708 64.357h206l7.5-10 7.5 10h206c11.225 0 18.592-11.697 13.774-21.836-4.881-10.27-13.395-22.396-28.017-32.645z" fill="#d3effd"/><g fill="#91dafa"><path d="m70.708 432.643c-9.442 3.464-17.12 6.83-21.465 9.876-14.622 10.249-23.136 22.375-28.017 32.645-4.818 10.139 2.549 21.836 13.774 21.836 0-5.297 4.708-38.169 35.708-64.357z"/><path d="m241 497v-70.944c0-4.142 3.358-7.5 7.5-7.5s7.5 3.358 7.5 7.5v70.944z"/><path d="m326.196 382.578-168.308 19.962c-1.372 4.404-2.219 9.455-2.219 15.223 0 26.385 18.081 49.553 27.802 60.101 3.075 3.337 8.395 3.166 11.281-.334l14.744-17.886c4.874-5.91 13.055-7.91 20.106-4.917l18.898 8.022 18.898-8.022c7.052-2.993 15.233-.992 20.106 4.917l14.744 17.886c2.886 3.501 8.206 3.671 11.281.334 9.72-10.549 27.802-33.717 27.802-60.101 0-18.096-8.323-29.159-15.135-35.185z"/></g><path d="m179.516 376.644s-15.711 6.912-21.628 25.896c12.978 8.725 30.913 20.789 31.984 21.546 11.221 7.93 24.069 12.768 38.628 12.768 14.618 0 27.491-4.559 38.628-12.717 2.074-1.519 44.78-30.423 47.668-32.456 4.259-2.998 8.036-6.017 11.4-9.103-4.718-4.174-8.711-5.934-8.711-5.934z" fill="#5fa7ee"/><path d="m201.341 425.866c12.297 7.783 28.84 14.413 47.159 22.19 38.364-16.287 68.984-28.608 68.984-54.906 0-1.102 0-3.412 0-3.412z" fill="#ebae9d"/><path d="m267.128 424.137c2.074-1.52 44.78-30.423 47.668-32.456.918-.646 1.813-1.293 2.688-1.942 0-18.032 0-43.094 0-43.094l-137.969-.163v46.669.006c.003 20.543 17.252 32 42.075 43.323 2.259.245 4.561.374 6.909.374 14.619 0 27.491-4.559 38.629-12.717z" fill="#c38778"/><path d="m248.5 0c-10.191 0-19.733 2.759-27.942 7.552-1.989 3.405-7.636 7.035-8.871 10.852l80.389 2.739c-10.166-12.872-25.9-21.143-43.576-21.143z" fill="#785252"/><path d="m215.687 18.404c1.236-3.817 2.882-7.447 4.871-10.852-16.486 9.626-27.57 27.493-27.57 47.96 0 30.659 24.854 55.512 55.512 55.512s55.512-24.854 55.512-55.512c0-12.983-4.469-24.915-11.937-34.37-13.539-4.026-28.221-6.142-43.575-6.142-11.371 0-22.369 1.17-32.813 3.404z" fill="#664646"/><path d="m160.236 334.137h176.528c34.112-9.806 34.112-49.588 34.112-66.209l10-34.667-10-39.694v-19l-33.199-79.568h-178.354l-13.199 22.664s-20 138.294-20 150.265c0 2.035 22.71 62.931 34.112 66.209z" fill="#ebae9d"/><path d="m146.124 117.662-20 56.905v19l-10 41.357 10 33.004c0 14.042 7.201 30.279 20.57 30.279-.388-4.872-.57-10.02-.57-15.506 0-11.972 0-165.039 0-165.039z" fill="#c38778"/><path d="m126.124 247.251-10-12.328 10 33.004v14.773c0 38.428 8.601 60.794 38.542 80.951 2.293 1.544 43.565 29.274 45.206 30.434 11.221 7.93 24.069 12.768 38.628 12.768 3.481 0 6.86-.266 10.144-.771-10.574-1.652-20.155-5.908-28.771-11.998-1.642-1.16-42.913-28.89-45.206-30.434-25.667-17.279-35.644-36.192-37.972-65.445-20.569-12.996-20.571-36.912-20.571-50.954z" fill="#664646"/><path d="m370.876 247.251c0 16.621 0 47.079-34.112 56.885-6.726-16.103-22.287-26-39.193-26h-98.141c-16.906 0-32.468 9.897-39.193 26-5.295-1.522-9.765-3.543-13.541-5.933 0 0-.385 46.358 27.97 65.448 2.293 1.544 43.565 29.274 45.206 30.434 8.617 6.09 28.198 10.345 38.771 11.998 10.504-1.613 19.999-5.731 28.484-11.947 2.074-1.52 44.78-30.423 47.668-32.456 28.823-20.289 36.08-41.452 36.08-78.98 0-.976 0-12.602 0-14.773l10-34.667z" fill="#785252"/><path d="m272.227 258.962-11.417-40.924c-3.476-12.46-21.142-12.46-24.619 0l-11.417 40.924c-2.601 9.324-.603 14.195 10.672 21.057 8.02 4.881 18.089 4.881 26.11 0 11.274-6.861 13.272-11.732 10.671-21.057z" fill="#c38778"/><path d="m337.677 60.984-10 22.689 10 11.325v37.267c0 4.112 1.551 8.073 4.342 11.093l28.856 31.208s0-25.193 0-36.905c.001-32.168-12.614-58.245-33.198-76.677z" fill="#b46e5a"/><path d="m159.323 60.984c-9.46 16.745-13.199 12.187-13.199 36.678v55.275l8.857-9.579c2.792-3.019 4.342-6.98 4.342-11.093v-37.266l10-11.325z" fill="#b46e5a"/><path d="m159.323 60.985c-20.583 18.432-33.199 44.509-33.199 76.677v36.905l20-21.63c0-17.986 0-31.616 0-35.275 0-24.491 3.739-39.932 13.199-56.677z" fill="#785252"/><path d="m248.5 30c-27.893 0-53.597 6.926-74.177 19.764l-10 37.234s37.762 7.479 84.177 7.479c60.074 0 89.177-17.443 89.177-17.443v-16.05c-22.321-19.988-54.015-30.984-89.177-30.984z" fill="#785252"/><path d="m174.323 76.999v-27.235c-5.364 3.346-10.385 7.088-15 11.22v34.014s42.762 9.479 89.177 9.479 89.177-9.479 89.177-9.479v-17.963c-17.497 3.094-49.193 7.443-89.177 7.443-46.416 0-74.177-7.479-74.177-7.479z" fill="#664646"/><path d="m304.474 354.93c-4.143 0-7.5-3.357-7.5-7.5s3.357-7.5 7.5-7.5c35.442 0 58.076-4.396 71.23-13.836 12.222-8.771 17.672-23.135 17.672-46.576 0-4.143 15-27.468 15-27.468s0 23.325 0 27.468c0 28.377-7.603 47.049-23.927 58.764-16.045 11.513-40.711 16.648-79.975 16.648z" fill="#766d78"/><path d="m280.053 329.695h-63.105c-11.382 0-26.157-6.072-31.183-16.233-1.836-3.713-.315-8.212 3.397-10.048 3.718-1.836 8.212-.313 10.048 3.397 1.36 2.752 8.651 7.884 17.737 7.884h63.105c9.086 0 16.377-5.132 17.737-7.884 1.835-3.712 6.332-5.234 10.048-3.397 3.713 1.836 5.233 6.335 3.397 10.048-5.024 10.161-19.799 16.233-31.181 16.233z" fill="#c38778"/><path d="m226.831 190.86c-1.512 0-3.037-.456-4.36-1.402-8.294-5.938-19.538-9.345-30.85-9.345-9.407 0-19.565 2.873-27.173 7.687-3.5 2.213-8.133 1.172-10.348-2.328s-1.173-8.133 2.328-10.348c4.757-3.01 17.71-10.011 35.192-10.011 14.583 0 28.641 4.314 39.582 12.147 3.368 2.412 4.144 7.097 1.732 10.465-1.463 2.046-3.766 3.135-6.103 3.135z" fill="#664646"/><path d="m270.169 190.86c-2.337 0-4.64-1.09-6.104-3.135-2.411-3.368-1.636-8.053 1.732-10.465 10.941-7.833 24.999-12.147 39.582-12.147 17.482 0 30.436 7.001 35.192 10.011 3.501 2.215 4.543 6.848 2.328 10.348-2.214 3.501-6.847 4.542-10.348 2.328-7.607-4.813-17.766-7.687-27.173-7.687-11.312 0-22.556 3.406-30.85 9.345-1.321.946-2.847 1.402-4.359 1.402z" fill="#664646"/><path d="m200.191 232.705c-4.143 0-7.5-3.357-7.5-7.5v-16.757c0-4.143 3.357-7.5 7.5-7.5s7.5 3.357 7.5 7.5v16.757c0 4.143-3.357 7.5-7.5 7.5z" fill="#785252"/><path d="m296.809 232.705c-4.143 0-7.5-3.357-7.5-7.5v-16.757c0-4.143 3.357-7.5 7.5-7.5s7.5 3.357 7.5 7.5v16.757c0 4.143-3.358 7.5-7.5 7.5z" fill="#785252"/><path d="m106.124 177.307-10 77.259c0 5.523 14.477 20 20 20s10-14.477 10-20v-60.999c0-10.87-10.07-18.378-20-16.26z" fill="#a29aa5"/><path d="m116.124 264.566c-5.523 0-10-4.477-10-10v-77.259c-1.38.294-2.758.771-4.106 1.454-11.042 5.598-20.894 22.365-20.894 51.986s9.852 46.388 20.894 51.986 24.106-2.426 24.106-14.806v-13.362c0 5.523-4.477 10.001-10 10.001z" fill="#766d78"/><path d="m394.982 178.761c-1.348-.683-2.725-1.16-4.106-1.454l-10 77.463c0 5.401 14.378 19.779 19.779 19.779 3.127 0 7.814-11.891 11.207-14.834 2.5-7.757 4.014-17.373 4.014-28.967 0-29.622-9.852-46.389-20.894-51.987z" fill="#a29aa5"/><path d="m390.876 254.77v-77.463c-9.931-2.117-20 5.391-20 16.26v74.361c0 12.38 13.063 20.404 24.106 14.806 6.72-3.407 12.995-10.959 16.881-23.019-3.393 2.943-8.08 4.834-11.207 4.834-5.401 0-9.78-4.379-9.78-9.779z" fill="#766d78"/></g></svg>